<?xml version="1.0" encoding="utf-8"?>
<!-- Generator: Adobe Illustrator 16.0.0, SVG Export Plug-In . SVG Version: 6.00 Build 0)  -->
<!DOCTYPE svg PUBLIC "-//W3C//DTD SVG 1.1//EN" "http://www.w3.org/Graphics/SVG/1.1/DTD/svg11.dtd">
<svg version="1.1" id="Capa_1" xmlns="http://www.w3.org/2000/svg" xmlns:xlink="http://www.w3.org/1999/xlink" x="0px" y="0px"
	 width="612px" height="792px" viewBox="0 0 612 792" enable-background="new 0 0 612 792" xml:space="preserve">
<g>
	<g>
		<path fill="#FFFFFF" d="M327.353,702c-17.675,0-34.825-3.464-50.981-10.297c-15.596-6.597-29.601-16.039-41.623-28.063
			c-12.022-12.022-21.464-26.026-28.063-41.623c-6.832-16.153-10.296-33.306-10.296-50.979c0-20.94,5.068-41.772,14.654-60.242
			c8.252-15.898,19.858-30.113,33.789-41.445V152.408C244.835,117.996,272.831,90,307.243,90h40.219
			c34.412,0,62.409,27.996,62.409,62.408v316.943c13.931,11.331,25.538,25.546,33.79,41.445
			c9.587,18.47,14.654,39.303,14.654,60.242c0,17.673-3.464,34.826-10.298,50.979c-6.598,15.597-16.037,29.601-28.062,41.623
			c-12.022,12.023-26.027,21.465-41.624,28.063C362.18,698.536,345.028,702,327.353,702z M307.243,115.702
			c-20.239,0-36.706,16.466-36.706,36.706V475.66c0,4.098-1.954,7.951-5.262,10.372c-27.039,19.783-43.182,51.562-43.182,85.005
			c0,58.04,47.219,105.26,105.26,105.26s105.26-47.221,105.26-105.26c0-33.443-16.143-65.223-43.184-85.005
			c-3.307-2.421-5.262-6.274-5.262-10.372V152.408c0-20.24-16.467-36.706-36.706-36.706H307.243z"/>
	</g>
	<path fill="#FFFFFF" d="M354.639,495.95V215.366c0-11.138-9.029-20.167-20.166-20.167h-14.241
		c-11.137,0-20.166,9.029-20.166,20.167V495.95c-30.676,11.149-52.588,40.561-52.588,75.09c0,44.114,35.761,79.876,79.875,79.876
		c44.113,0,79.876-35.762,79.876-79.876C407.227,536.51,385.317,507.099,354.639,495.95z M309.66,546.177
		c-5.974,5.3-9.84,12.273-11.177,20.169c-0.703,4.159-0.657,8.344,0.141,12.436c1.023,5.251-2.403,10.337-7.656,11.361
		c-0.625,0.123-1.248,0.182-1.863,0.182c-4.542,0-8.597-3.21-9.498-7.836c-1.245-6.391-1.32-12.91-0.225-19.377
		c2.052-12.123,8.24-23.284,17.423-31.429c4.003-3.55,10.125-3.184,13.676,0.819C314.03,536.506,313.663,542.627,309.66,546.177z"/>
	<g>
		<g>
			<g>
				<path fill="#FFFFFF" d="M196.417,184.051c0,5.818-4.717,10.536-10.537,10.536h-21.658c-5.82,0-10.537-4.718-10.537-10.536
					v-11.48c0-5.82,4.717-10.538,10.537-10.538h21.658c5.82,0,10.537,4.717,10.537,10.538V184.051z"/>
				<path fill="#FFFFFF" d="M196.417,252.74c0,5.82-4.717,10.537-10.537,10.537h-21.658c-5.82,0-10.537-4.716-10.537-10.537v-11.481
					c0-5.82,4.717-10.537,10.537-10.537h21.658c5.82,0,10.537,4.716,10.537,10.537V252.74z"/>
				<path fill="#FFFFFF" d="M196.417,321.428c0,5.82-4.717,10.538-10.537,10.538h-21.658c-5.82,0-10.537-4.717-10.537-10.538
					v-11.479c0-5.819,4.717-10.539,10.537-10.539h21.658c5.82,0,10.537,4.719,10.537,10.539V321.428z"/>
			</g>
			<path fill="#FFFFFF" d="M196.417,390.119c0,5.818-4.717,10.538-10.537,10.538h-21.658c-5.82,0-10.537-4.718-10.537-10.538
				v-11.479c0-5.82,4.717-10.536,10.537-10.536h21.658c5.82,0,10.537,4.716,10.537,10.536V390.119z"/>
		</g>
		<path fill="#FFFFFF" d="M196.417,458.807c0,5.821-4.717,10.539-10.537,10.539h-21.658c-5.82,0-10.537-4.716-10.537-10.539v-11.479
			c0-5.817,4.717-10.536,10.537-10.536h21.658c5.82,0,10.537,4.719,10.537,10.536V458.807z"/>
	</g>
</g>
</svg>
